<svg xmlns="http://www.w3.org/2000/svg" width="16.209" height="15.399" viewBox="0 0 16.209 15.399">
  <g id="contact" transform="translate(0.108 -12.713)">
    <g id="Group_3627" data-name="Group 3627" transform="translate(0.001 12.813)">
      <g id="Group_3626" data-name="Group 3626" transform="translate(0 0)">
        <path id="Path_1816" data-name="Path 1816" d="M15.321,12.813H4.145a.681.681,0,0,0-.68.68v3.083l-.511-.767a.79.79,0,0,0-1.067-.24L.835,16.2a1.543,1.543,0,0,0-.7.914c-.384,1.4-.1,3.8,3.433,7.335,2.809,2.806,4.9,3.561,6.346,3.561a3.726,3.726,0,0,0,.99-.129,1.545,1.545,0,0,0,.914-.7l.631-1.053a.79.79,0,0,0-.24-1.066L9.687,23.383a.8.8,0,0,0-1.064.173L7.89,24.5a.255.255,0,0,1-.326.069l-.14-.077A8.385,8.385,0,0,1,5.24,22.774c-.125-.125-.238-.242-.344-.353H15.321a.68.68,0,0,0,.68-.677V13.493A.681.681,0,0,0,15.321,12.813ZM7.169,24.958l.136.074a.786.786,0,0,0,1.007-.208l.733-.942a.259.259,0,0,1,.347-.056L11.909,25.5a.258.258,0,0,1,.078.347L11.356,26.9a1.014,1.014,0,0,1-.6.464c-1.261.347-3.468.053-6.817-3.3S.3,18.516.646,17.257a1.014,1.014,0,0,1,.464-.6l1.053-.632a.258.258,0,0,1,.347.078l1.679,2.518a.259.259,0,0,1-.056.347l-.943.733a.786.786,0,0,0-.208,1.007l.075.136a8.842,8.842,0,0,0,1.807,2.306A8.86,8.86,0,0,0,7.169,24.958Zm8.3-3.214a.146.146,0,0,1-.147.144H4.415a6.727,6.727,0,0,1-.89-1.3l-.077-.14a.254.254,0,0,1,.069-.326l.943-.733a.794.794,0,0,0,.173-1.064L4,17.376V13.493a.145.145,0,0,1,.147-.147H15.321a.145.145,0,0,1,.147.147v8.251Z" transform="translate(-0.001 -12.813)" fill="#676767" stroke="#707070" stroke-width="0.2"/>
        <path id="Path_1817" data-name="Path 1817" d="M157.664,50.64,153.4,53.877a.345.345,0,0,1-.405,0l-4.267-3.237a.255.255,0,1,0-.309.407l4.267,3.237a.86.86,0,0,0,1.022,0l4.269-3.237a.255.255,0,0,0-.309-.407Z" transform="translate(-143.195 -49.457)" fill="#676767" stroke="#707070" stroke-width="0.2"/>
        <path id="Path_1818" data-name="Path 1818" d="M151.495,172.482l-2.616,2.8a.255.255,0,0,0,.374.348l2.616-2.8a.255.255,0,0,0-.374-.347Z" transform="translate(-144.108 -167.36)" fill="#676767" stroke="#707070" stroke-width="0.2"/>
        <path id="Path_1819" data-name="Path 1819" d="M370.394,172.16a.255.255,0,0,0-.374.348l2.616,2.8a.255.255,0,1,0,.374-.348Z" transform="translate(-358.199 -167.038)" fill="#676767" stroke="#707070" stroke-width="0.2"/>
      </g>
    </g>
  </g>
</svg>
