<svg xmlns="http://www.w3.org/2000/svg" xmlns:xlink="http://www.w3.org/1999/xlink" width="24" height="24" viewBox="0 0 24 24">
  <defs>
    <linearGradient id="linear-gradient" x1="0.5" x2="0.5" y2="1" gradientUnits="objectBoundingBox">
      <stop offset="0" stop-color="#280071"/>
      <stop offset="0.478" stop-color="#33026f"/>
      <stop offset="1" stop-color="#c21f53"/>
    </linearGradient>
  </defs>
  <g id="operator-customer-service-svgrepo-com" transform="translate(0 1)">
    <g id="Group_11570" data-name="Group 11570" transform="translate(0 -1)">
      <path id="Path_3305" data-name="Path 3305" d="M22.8,18.92a19.753,19.753,0,0,0-5.849-2.248l.169-.232a.311.311,0,0,0,.08-.32l-.375-1.5q.2-.288.384-.595A3.022,3.022,0,0,0,19.58,11.4,1.319,1.319,0,0,0,20.8,10.12v-3a1.29,1.29,0,0,0-1.207-1.278C19.5,3.531,18.486-1,12-1S4.5,3.532,4.407,5.842A1.289,1.289,0,0,0,3.2,7.12v3A1.324,1.324,0,0,0,4.52,11.4h.6a1.22,1.22,0,0,0,.617-.172,8.747,8.747,0,0,0,1.438,3.392L6.8,16.12a.538.538,0,0,0,.08.32l.169.232A19.755,19.755,0,0,0,1.2,18.92,2.127,2.127,0,0,0,0,20.88V22.6a.378.378,0,0,0,.4.4H23.6a.378.378,0,0,0,.4-.4V20.88A2.293,2.293,0,0,0,22.8,18.92ZM12,18.005,12.96,20.2H11.027ZM10.736,21h2.526l.234,1.2h-3ZM16.2,15.4l.16.72-.409.561a.357.357,0,0,0-.071.079l-1.664,2.3-.528.725L12.61,17.362a5.8,5.8,0,0,0,3.425-1.791C16.091,15.515,16.146,15.458,16.2,15.4Zm1.562-2.488a8.657,8.657,0,0,0,.5-1.695,1.257,1.257,0,0,0,.513.175A1.952,1.952,0,0,1,17.762,12.912Zm2.2-5.832v3a.486.486,0,0,1-.48.48h-.6a.486.486,0,0,1-.48-.48v-3a.486.486,0,0,1,.48-.48h.6A.486.486,0,0,1,19.96,7.08ZM12-.2c2.465,0,6.615.8,6.793,6.047a1.272,1.272,0,0,0-.473.146,6.4,6.4,0,0,0-12.64,0,1.256,1.256,0,0,0-.474-.145C5.385.6,9.535-.2,12-.2ZM5.56,10.08a.486.486,0,0,1-.48.48h-.6A.486.486,0,0,1,4,10.08v-3a.486.486,0,0,1,.48-.48h.6a.486.486,0,0,1,.48.48ZM6.4,7A5.6,5.6,0,1,1,17.6,7V9.8a7.4,7.4,0,0,1-.9,3.557,15.994,15.994,0,0,1-4.3.443.4.4,0,0,0,0,.8,20.124,20.124,0,0,0,3.634-.274l-.074.074a6.706,6.706,0,0,1-.636.734A5.114,5.114,0,0,1,12.177,16.6.451.451,0,0,0,12,16.56a.383.383,0,0,0-.167.036A4.522,4.522,0,0,1,9.85,16a6.5,6.5,0,0,1-1.81-1.6l-.12-.12L7.9,14.272A7.37,7.37,0,0,1,6.4,9.8V7Zm4.99,10.362-1.078,2.426-.528-.725L8.12,16.76c-.013-.013-.027-.025-.041-.038l-.439-.6.16-.72c.054.058.109.115.164.171A5.805,5.805,0,0,0,11.39,17.362ZM.8,20.88a1.373,1.373,0,0,1,.76-1.24A17.834,17.834,0,0,1,7.58,17.4l2.387,3.282-.3,1.515H.8ZM23.2,22.2H14.336l-.3-1.515,2.413-3.318A19.456,19.456,0,0,1,22.44,19.6a1.48,1.48,0,0,1,.76,1.28V22.2Z" transform="translate(0 1)" fill="url(#linear-gradient)"/>
    </g>
  </g>
</svg>
