<svg xmlns="http://www.w3.org/2000/svg" xmlns:xlink="http://www.w3.org/1999/xlink" width="24.273" height="22.772" viewBox="0 0 24.273 22.772">
  <defs>
    <linearGradient id="linear-gradient" x1="0.5" x2="0.5" y2="1" gradientUnits="objectBoundingBox">
      <stop offset="0" stop-color="#33026f"/>
      <stop offset="0.448" stop-color="#33026f"/>
      <stop offset="1" stop-color="#c21f53"/>
    </linearGradient>
    <linearGradient id="linear-gradient-3" x1="0.904" y1="0.317" x2="0.179" y2="1" gradientUnits="objectBoundingBox">
      <stop offset="0" stop-color="#280071"/>
      <stop offset="0.478" stop-color="#33026f"/>
      <stop offset="1" stop-color="#c21f53"/>
    </linearGradient>
  </defs>
  <g id="Group_11569" data-name="Group 11569" transform="translate(-1681.182 24000.557)">
    <g id="people-svgrepo-com_1_" data-name="people-svgrepo-com (1)" transform="translate(1681.455 -23988.436)">
      <path id="Path_3303" data-name="Path 3303" d="M.221,11.369A9.049,9.049,0,0,0,1.3,12.51c0-.034-.006-.067-.006-.1A3.021,3.021,0,0,1,3.232,9.6a.6.6,0,0,0,.105-1.072A1.8,1.8,0,1,1,5.508,5.681a3.575,3.575,0,0,1,1.215-.43A3,3,0,1,0,1.969,8.907,4.247,4.247,0,0,0,.221,11.369Zm14.152,0a4.247,4.247,0,0,0-1.748-2.463A3,3,0,1,0,7.871,5.25a3.574,3.574,0,0,1,1.215.43,1.8,1.8,0,1,1,2.171,2.847A.6.6,0,0,0,11.362,9.6,3.021,3.021,0,0,1,13.3,12.409c0,.034,0,.067-.006.1A9.05,9.05,0,0,0,14.373,11.369Z" transform="translate(-0.221 -3.998)" stroke="#fff" stroke-width="0.5" fill="url(#linear-gradient)"/>
      <path id="Path_3304" data-name="Path 3304" d="M13.4,14.981a4.236,4.236,0,0,0-1.853-3.072,3,3,0,1,0-4.648,0,4.236,4.236,0,0,0-1.853,3.072,8.965,8.965,0,0,0,1.182.51c0-.027-.008-.052-.008-.08A3.022,3.022,0,0,1,8.162,12.6a.6.6,0,0,0,.105-1.072A1.781,1.781,0,0,1,7.421,10a1.8,1.8,0,1,1,3.6,0,1.781,1.781,0,0,1-.846,1.524.6.6,0,0,0,.105,1.072,3.022,3.022,0,0,1,1.942,2.81c0,.028-.007.053-.008.08A8.963,8.963,0,0,0,13.4,14.981Z" transform="translate(-2.147 -5.197)" stroke="#fff" stroke-width="0.5" fill="url(#linear-gradient)"/>
    </g>
    <g id="funds" transform="translate(1690.462 -24000.557)">
      <path id="Path_2004" data-name="Path 2004" d="M11.464,28.719V28.71a.332.332,0,0,0-.008-.041h0a.335.335,0,0,0-.013-.037l0-.01-.013-.026-.006-.011,0-.006-.016-.023,0,0a.329.329,0,0,0-.027-.031l-.006-.005-.026-.023-.007-.005a.344.344,0,0,0-.038-.024l-5-2.829,2.877-1.8L14,26.56l-2.032,1.274a.338.338,0,1,0,.361.572l2.511-1.575a.337.337,0,0,0-.013-.58l-5.493-3.11a.34.34,0,0,0-.348.008L5.456,25.361h0L3.692,26.468l0,0L.161,28.682a.337.337,0,0,0,.013.58l5.493,3.11a.34.34,0,0,0,.348-.008l2.511-1.575a.338.338,0,1,0-.361-.572L5.826,31.684,1,28.953l2.877-1.8,5.145,2.913v3.858a.339.339,0,0,0,.52.286L11.308,33.1a.338.338,0,0,0,.158-.286V28.758s0,0,0-.006S11.465,28.73,11.464,28.719ZM9.7,33.307V29.865a.338.338,0,0,0-.172-.294l-5-2.831,1.113-.7,4.824,2.731-.422.265a.338.338,0,0,0,.361.572l.382-.24v3.256Z" transform="translate(-0.002 -23.098)" fill="url(#linear-gradient-3)"/>
      <path id="Path_2005" data-name="Path 2005" d="M350.7,155.195l-2.562,1.613a.346.346,0,1,0,.369.586l2.562-1.613a.346.346,0,1,0-.369-.586Z" transform="translate(-336.235 -150.681)" fill="url(#linear-gradient-3)"/>
      <path id="Path_2006" data-name="Path 2006" d="M8.326,228.484l-2.386,1.5L.517,226.9a.346.346,0,1,0-.342.6l5.6,3.185a.346.346,0,0,0,.355-.008L8.7,229.07a.346.346,0,0,0-.369-.586Z" transform="translate(0 -220.002)" fill="url(#linear-gradient-3)"/>
      <path id="Path_2007" data-name="Path 2007" d="M350.7,195.194l-2.562,1.613a.346.346,0,1,0,.369.586l2.562-1.613a.346.346,0,1,0-.369-.586Z" transform="translate(-336.235 -189.329)" fill="url(#linear-gradient-3)"/>
      <path id="Path_2008" data-name="Path 2008" d="M8.326,268.484l-2.386,1.5L.517,266.9a.346.346,0,1,0-.342.6l5.6,3.185a.346.346,0,0,0,.355-.008L8.7,269.07a.346.346,0,0,0-.369-.586Z" transform="translate(0 -258.694)" fill="url(#linear-gradient-3)"/>
      <path id="Path_2009" data-name="Path 2009" d="M350.7,235.195l-2.562,1.613a.346.346,0,1,0,.369.586l2.562-1.613a.346.346,0,1,0-.369-.586Z" transform="translate(-336.235 -227.978)" fill="url(#linear-gradient-3)"/>
      <path id="Path_2010" data-name="Path 2010" d="M8.326,308.484l-2.386,1.5L.517,306.9a.346.346,0,0,0-.342.6l5.6,3.185a.346.346,0,0,0,.355-.008L8.7,309.07a.346.346,0,0,0-.369-.586Z" transform="translate(0 -297.31)" fill="url(#linear-gradient-3)"/>
    </g>
  </g>
</svg>
