<svg xmlns="http://www.w3.org/2000/svg" width="29.241" height="24" viewBox="0 0 29.241 24">
  <g id="Group_11576" data-name="Group 11576" transform="translate(-1812.667 23385.764)">
    <path id="building-svgrepo-com" d="M36,24h0l-8.637-.017H18.124a.336.336,0,0,1-.33-.341V8.305a.336.336,0,0,1,.33-.341h4.61V.341A.336.336,0,0,1,23.064,0H36a.336.336,0,0,1,.33.341V23.659a.347.347,0,0,1-.1.241A.325.325,0,0,1,36,24ZM27.7,23.3l7.977.016V.682H23.394V7.964h3.973a.336.336,0,0,1,.33.341v15Zm-9.243,0h8.583V8.646H18.454Zm7.564-2.215H23.406a.336.336,0,0,1-.33-.341V19.167a.336.336,0,0,1,.33-.341h2.612a.336.336,0,0,1,.33.341v1.578A.336.336,0,0,1,26.018,21.086ZM23.736,20.4h1.951v-.9H23.736Zm-1.651.682H19.473a.336.336,0,0,1-.33-.341V19.167a.336.336,0,0,1,.33-.341h2.612a.336.336,0,0,1,.33.341v1.578A.336.336,0,0,1,22.085,21.086ZM19.8,20.4h1.951v-.9H19.8Zm13.957.507H32.5a.336.336,0,0,1-.33-.341V19.153a.336.336,0,0,1,.33-.341H33.76a.336.336,0,0,1,.33.341V20.57A.336.336,0,0,1,33.76,20.911Zm-.932-.682h.6v-.735h-.6Zm-2.709.682H28.856a.336.336,0,0,1-.33-.341V19.153a.336.336,0,0,1,.33-.341h1.263a.336.336,0,0,1,.33.341V20.57A.336.336,0,0,1,30.119,20.911Zm-.933-.682h.6v-.735h-.6ZM26.018,18H23.406a.336.336,0,0,1-.33-.341V16.083a.336.336,0,0,1,.33-.341h2.612a.336.336,0,0,1,.33.341v1.578A.336.336,0,0,1,26.018,18Zm-2.282-.682h1.951v-.9H23.736ZM22.085,18H19.473a.336.336,0,0,1-.33-.341V16.083a.336.336,0,0,1,.33-.341h2.612a.336.336,0,0,1,.33.341v1.578A.336.336,0,0,1,22.085,18ZM19.8,17.32h1.951v-.9H19.8Zm13.957.194H32.5a.336.336,0,0,1-.33-.341V15.757a.336.336,0,0,1,.33-.341H33.76a.336.336,0,0,1,.33.341v1.417A.336.336,0,0,1,33.76,17.514Zm-.932-.682h.6V16.1h-.6Zm-2.709.682H28.856a.336.336,0,0,1-.33-.341V15.757a.336.336,0,0,1,.33-.341h1.263a.336.336,0,0,1,.33.341v1.417A.336.336,0,0,1,30.119,17.514Zm-.933-.682h.6V16.1h-.6Zm-3.168-1.915H23.406a.336.336,0,0,1-.33-.341V13a.336.336,0,0,1,.33-.341h2.612a.336.336,0,0,1,.33.341v1.578A.336.336,0,0,1,26.018,14.918Zm-2.282-.682h1.951v-.9H23.736Zm-1.651.682H19.473a.336.336,0,0,1-.33-.341V13a.336.336,0,0,1,.33-.341h2.612a.336.336,0,0,1,.33.341v1.578A.336.336,0,0,1,22.085,14.918ZM19.8,14.236h1.951v-.9H19.8Zm13.957-.119H32.5a.336.336,0,0,1-.33-.341V12.36a.336.336,0,0,1,.33-.341H33.76a.336.336,0,0,1,.33.341v1.417A.336.336,0,0,1,33.76,14.117Zm-.932-.682h.6V12.7h-.6Zm-2.709.682H28.856a.336.336,0,0,1-.33-.341V12.36a.336.336,0,0,1,.33-.341h1.263a.336.336,0,0,1,.33.341v1.417A.336.336,0,0,1,30.119,14.117Zm-.933-.682h.6V12.7h-.6Zm-3.168-1.6H23.406a.336.336,0,0,1-.33-.341V9.914a.336.336,0,0,1,.33-.341h2.612a.336.336,0,0,1,.33.341v1.579A.336.336,0,0,1,26.018,11.834Zm-2.282-.682h1.951v-.9H23.736Zm-1.651.682H19.473a.336.336,0,0,1-.33-.341V9.914a.336.336,0,0,1,.33-.341h2.612a.336.336,0,0,1,.33.341v1.579A.336.336,0,0,1,22.085,11.834ZM19.8,11.152h1.951v-.9H19.8ZM33.76,10.72H32.5a.336.336,0,0,1-.33-.341V8.963a.336.336,0,0,1,.33-.341H33.76a.336.336,0,0,1,.33.341V10.38A.336.336,0,0,1,33.76,10.72Zm-.932-.682h.6V9.3h-.6Zm-2.709.682H28.856a.336.336,0,0,1-.33-.341V8.963a.336.336,0,0,1,.33-.341h1.263a.336.336,0,0,1,.33.341V10.38A.336.336,0,0,1,30.119,10.72Zm-.933-.682h.6V9.3h-.6ZM33.76,7.324H32.5a.336.336,0,0,1-.33-.341V5.566a.336.336,0,0,1,.33-.341H33.76a.336.336,0,0,1,.33.341V6.983A.336.336,0,0,1,33.76,7.324Zm-.932-.682h.6V5.907h-.6Zm-2.709.682H28.856a.336.336,0,0,1-.33-.341V5.566a.336.336,0,0,1,.33-.341h1.263a.336.336,0,0,1,.33.341V6.983A.336.336,0,0,1,30.119,7.324Zm-.933-.682h.6V5.907h-.6Zm-2.709.682H25.214a.336.336,0,0,1-.33-.341V5.566a.336.336,0,0,1,.33-.341h1.263a.336.336,0,0,1,.33.341V6.983A.336.336,0,0,1,26.477,7.324Zm-.932-.682h.6V5.907h-.6ZM33.76,3.927H32.5a.336.336,0,0,1-.33-.341V2.169a.336.336,0,0,1,.33-.341H33.76a.336.336,0,0,1,.33.341V3.586A.336.336,0,0,1,33.76,3.927Zm-.932-.682h.6V2.509h-.6Zm-2.709.682H28.856a.336.336,0,0,1-.33-.341V2.169a.336.336,0,0,1,.33-.341h1.263a.336.336,0,0,1,.33.341V3.586A.336.336,0,0,1,30.119,3.927Zm-.933-.682h.6V2.509h-.6Zm-2.709.682H25.214a.336.336,0,0,1-.33-.341V2.169a.336.336,0,0,1,.33-.341h1.263a.336.336,0,0,1,.33.341V3.586A.336.336,0,0,1,26.477,3.927Zm-.932-.682h.6V2.509h-.6Z" transform="translate(1794.873 -23385.764)" fill="#652a84"/>
    <g id="Group_11578" data-name="Group 11578" transform="translate(1831.96 -23369.557)">
      <g id="Group_11576-2" data-name="Group 11576" transform="translate(1.414 1.505)">
        <g id="Group_3925" data-name="Group 3925">
          <path id="Path_1965" data-name="Path 1965" d="M158.524,288.93h-.21l-.007-.016.149-.149a.133.133,0,0,0,0-.188l-.376-.376a.137.137,0,0,0-.188,0l-.149.149-.016-.007v-.21a.133.133,0,0,0-.133-.133h-.531a.133.133,0,0,0-.133.133v.21l-.016.007-.149-.149a.133.133,0,0,0-.188,0l-.376.376a.133.133,0,0,0,0,.188l.149.149-.007.016h-.21a.133.133,0,0,0-.133.133v.531a.133.133,0,0,0,.133.133h.21l.007.016-.149.149a.133.133,0,0,0,0,.188l.376.376a.137.137,0,0,0,.188,0l.149-.149.016.007v.21a.133.133,0,0,0,.133.133h.531a.133.133,0,0,0,.133-.133v-.21l.016-.007.149.149a.133.133,0,0,0,.188,0l.376-.376a.133.133,0,0,0,0-.188l-.149-.149.007-.016h.21a.133.133,0,0,0,.133-.133v-.531A.133.133,0,0,0,158.524,288.93Zm-.133.531h-.172a.133.133,0,0,0-.127.095.787.787,0,0,1-.062.151.133.133,0,0,0,.023.157l.121.121-.188.188-.121-.121a.133.133,0,0,0-.157-.023.788.788,0,0,1-.151.062.133.133,0,0,0-.095.127v.172H157.2v-.172a.133.133,0,0,0-.095-.127.788.788,0,0,1-.151-.062.133.133,0,0,0-.157.023l-.121.121-.188-.188.121-.121a.133.133,0,0,0,.023-.157.789.789,0,0,1-.062-.151.133.133,0,0,0-.127-.095h-.172V289.2h.172a.133.133,0,0,0,.127-.095.787.787,0,0,1,.062-.151.133.133,0,0,0-.023-.157l-.121-.121.188-.188.121.121a.133.133,0,0,0,.157.023.789.789,0,0,1,.151-.062.133.133,0,0,0,.095-.127v-.172h.266v.172a.133.133,0,0,0,.095.127.788.788,0,0,1,.151.062.133.133,0,0,0,.157-.023l.121-.121.188.188-.121.121a.133.133,0,0,0-.023.157.785.785,0,0,1,.062.151.133.133,0,0,0,.127.095h.172Z" transform="translate(-156 -288)" fill="#652a84"/>
        </g>
      </g>
      <g id="Group_11577" data-name="Group 11577">
        <g id="Group_3925-2" data-name="Group 3925">
          <path id="Path_1965-2" data-name="Path 1965" d="M161.211,289.92h-.434l-.014-.034.307-.307a.274.274,0,0,0,0-.388l-.776-.776a.282.282,0,0,0-.388,0l-.307.307-.034-.014v-.434a.274.274,0,0,0-.274-.274h-1.1a.274.274,0,0,0-.274.274v.434l-.034.014-.307-.307a.274.274,0,0,0-.388,0l-.776.776a.274.274,0,0,0,0,.388l.307.307-.014.034h-.434a.274.274,0,0,0-.274.274v1.1a.274.274,0,0,0,.274.274h.434l.014.034-.307.307a.274.274,0,0,0,0,.388l.776.776a.282.282,0,0,0,.388,0l.307-.307.034.014v.434a.274.274,0,0,0,.274.274h1.1a.274.274,0,0,0,.274-.274v-.434l.034-.014.307.307a.274.274,0,0,0,.388,0l.776-.776a.274.274,0,0,0,0-.388l-.307-.307.014-.034h.434a.274.274,0,0,0,.274-.274v-1.1A.274.274,0,0,0,161.211,289.92Zm-.274,1.1h-.355a.274.274,0,0,0-.263.2,1.626,1.626,0,0,1-.129.312.274.274,0,0,0,.047.325l.25.25-.388.388-.25-.25a.274.274,0,0,0-.325-.047,1.622,1.622,0,0,1-.312.129.274.274,0,0,0-.2.263v.355h-.548v-.355a.274.274,0,0,0-.2-.263,1.623,1.623,0,0,1-.312-.129.274.274,0,0,0-.325.047l-.25.25L157,292.1l.25-.25a.274.274,0,0,0,.047-.325,1.626,1.626,0,0,1-.129-.312.274.274,0,0,0-.263-.2h-.355v-.549h.355a.274.274,0,0,0,.263-.2,1.627,1.627,0,0,1,.129-.312.274.274,0,0,0-.047-.325l-.25-.25.388-.388.25.25a.274.274,0,0,0,.325.047,1.62,1.62,0,0,1,.312-.129.274.274,0,0,0,.2-.262v-.355h.549v.355a.274.274,0,0,0,.2.263,1.63,1.63,0,0,1,.312.129.274.274,0,0,0,.325-.047l.25-.25.388.388-.25.25a.274.274,0,0,0-.047.325,1.627,1.627,0,0,1,.129.312.274.274,0,0,0,.263.2h.355Z" transform="translate(-156 -288)" fill="#652a84"/>
        </g>
      </g>
    </g>
    <g id="Group_11579" data-name="Group 11579" transform="translate(1835.692 -23376.123)">
      <g id="Group_11576-3" data-name="Group 11576" transform="translate(1.603 1.705)">
        <g id="Group_3925-3" data-name="Group 3925">
          <path id="Path_1965-3" data-name="Path 1965" d="M158.86,289.054h-.238l-.008-.018.169-.169a.15.15,0,0,0,0-.213l-.426-.426a.155.155,0,0,0-.213,0l-.169.169-.019-.008v-.238a.151.151,0,0,0-.151-.151h-.6a.151.151,0,0,0-.151.151v.238l-.019.008-.169-.169a.15.15,0,0,0-.213,0l-.426.426a.15.15,0,0,0,0,.213l.169.169-.008.018h-.238a.151.151,0,0,0-.151.151v.6a.151.151,0,0,0,.151.151h.238l.008.019-.169.169a.15.15,0,0,0,0,.213l.426.426a.155.155,0,0,0,.213,0l.169-.169.019.008v.238a.151.151,0,0,0,.151.151h.6a.151.151,0,0,0,.151-.151v-.238l.019-.008.169.169a.151.151,0,0,0,.213,0l.426-.426a.15.15,0,0,0,0-.213l-.169-.169.008-.019h.238a.151.151,0,0,0,.151-.151v-.6A.151.151,0,0,0,158.86,289.054Zm-.151.6h-.195a.15.15,0,0,0-.144.108.891.891,0,0,1-.071.171.151.151,0,0,0,.026.178l.137.137-.213.213-.137-.137a.151.151,0,0,0-.178-.026.892.892,0,0,1-.171.071.151.151,0,0,0-.108.144v.195h-.3v-.195a.151.151,0,0,0-.108-.144.892.892,0,0,1-.171-.071.151.151,0,0,0-.178.026l-.137.137-.213-.213.137-.137a.151.151,0,0,0,.026-.178.892.892,0,0,1-.071-.171.15.15,0,0,0-.144-.107H156.3v-.3h.195a.15.15,0,0,0,.144-.108.891.891,0,0,1,.071-.171.151.151,0,0,0-.026-.178l-.137-.137.213-.213.137.137a.15.15,0,0,0,.178.026.891.891,0,0,1,.171-.071.151.151,0,0,0,.107-.144V288.3h.3v.195a.151.151,0,0,0,.108.144.892.892,0,0,1,.171.071.151.151,0,0,0,.178-.026l.137-.137.213.213-.137.137a.151.151,0,0,0-.026.178.89.89,0,0,1,.071.171.151.151,0,0,0,.144.108h.195Z" transform="translate(-156 -288)" fill="#652a84"/>
        </g>
      </g>
      <g id="Group_11577-2" data-name="Group 11577" transform="translate(0 0)">
        <g id="Group_3925-4" data-name="Group 3925">
          <path id="Path_1965-4" data-name="Path 1965" d="M161.905,290.176h-.492l-.016-.038.348-.348a.311.311,0,0,0,0-.44l-.879-.879a.32.32,0,0,0-.439,0l-.348.348-.038-.015v-.492a.311.311,0,0,0-.311-.311h-1.243a.311.311,0,0,0-.311.311v.492l-.038.015-.348-.348a.311.311,0,0,0-.439,0l-.879.879a.311.311,0,0,0,0,.44l.348.348-.016.038h-.492a.311.311,0,0,0-.311.311v1.243a.311.311,0,0,0,.311.311h.492l.016.038-.348.348a.311.311,0,0,0,0,.439l.879.879a.32.32,0,0,0,.439,0l.348-.348.038.016v.492a.311.311,0,0,0,.311.311h1.243a.311.311,0,0,0,.311-.311v-.492l.038-.016.348.348a.311.311,0,0,0,.439,0l.879-.879a.311.311,0,0,0,0-.439l-.348-.348.016-.038h.492a.311.311,0,0,0,.311-.311v-1.243A.311.311,0,0,0,161.905,290.176Zm-.311,1.243h-.4a.311.311,0,0,0-.3.222,1.844,1.844,0,0,1-.146.354.311.311,0,0,0,.053.368l.284.284-.439.439-.284-.284a.311.311,0,0,0-.368-.053,1.838,1.838,0,0,1-.354.146.311.311,0,0,0-.222.3v.4H158.8v-.4a.311.311,0,0,0-.222-.3,1.838,1.838,0,0,1-.354-.146.311.311,0,0,0-.368.053l-.284.284-.439-.44.284-.284a.311.311,0,0,0,.053-.368,1.84,1.84,0,0,1-.146-.354.311.311,0,0,0-.3-.222h-.4V290.8h.4a.311.311,0,0,0,.3-.222,1.84,1.84,0,0,1,.146-.354.311.311,0,0,0-.053-.368l-.284-.284.439-.439.284.284a.311.311,0,0,0,.368.053,1.843,1.843,0,0,1,.354-.146.311.311,0,0,0,.222-.3v-.4h.622v.4a.311.311,0,0,0,.222.3,1.844,1.844,0,0,1,.354.146.311.311,0,0,0,.368-.053l.284-.284.439.439-.284.284a.311.311,0,0,0-.053.368,1.844,1.844,0,0,1,.146.354.311.311,0,0,0,.3.222h.4Z" transform="translate(-156 -288)" fill="#652a84"/>
        </g>
      </g>
    </g>
  </g>
</svg>
