<svg xmlns="http://www.w3.org/2000/svg" width="24.185" height="24.15" viewBox="0 0 24.185 24.15">
  <g id="Group_11584" data-name="Group 11584" transform="translate(-388.85 -109.375)">
    <g id="Group_11583" data-name="Group 11583" transform="translate(-260 -1)">
      <g id="seller-svgrepo-com" transform="translate(649 114.745)">
        <g id="Group_11566" data-name="Group 11566" transform="translate(0 0)">
          <path id="Path_3297" data-name="Path 3297" d="M17.679,14.436a16.119,16.119,0,0,0-4.813-1.845l.159-.219a.255.255,0,0,0,.066-.262l-.3-1.2a7.01,7.01,0,0,0,1.284-3.941V4.67a5.243,5.243,0,0,0-10.487,0V6.964a7.01,7.01,0,0,0,1.284,3.941l-.3,1.2a.487.487,0,0,0,.066.295l.138.19A16.184,16.184,0,0,0-.017,14.436,1.743,1.743,0,0,0-1,16.042v2.687a.31.31,0,0,0,.328.328H18.335a.31.31,0,0,0,.328-.328V16.042A1.879,1.879,0,0,0,17.679,14.436Zm-8.848-.778.1.221.688,1.606h-1.6ZM7.8,16.243l.012-.1H9.847l.012.1L10.1,18.4H7.561Zm4.469-4.691.131.59-.335.46a.292.292,0,0,0-.058.065l-1.363,1.888-.432.593L9.331,13.16a4.755,4.755,0,0,0,2.806-1.468Q12.205,11.624,12.272,11.552ZM4.243,4.67a4.588,4.588,0,0,1,9.176,0V6.964a6.04,6.04,0,0,1-1.193,3.62l-.052.017-.1.1a4.069,4.069,0,0,1-3.244,1.8h0a4.259,4.259,0,0,1-3.244-1.8l-.1-.1-.052-.017a6.04,6.04,0,0,1-1.193-3.62V4.67Zm4.088,8.49-.883,1.988-.432-.594L5.652,12.666l-.034-.031-.359-.493.131-.59q.067.072.135.14A4.755,4.755,0,0,0,8.331,13.16ZM-.345,16.042a1.125,1.125,0,0,1,.623-1.016A14.61,14.61,0,0,1,5.21,13.193l1.982,2.725L6.9,18.4H-.345ZM18.007,18.4H10.8l-.289-2.568,1.944-2.672a15.882,15.882,0,0,1,4.932,1.833,1.212,1.212,0,0,1,.623,1.049V18.4Z" transform="translate(1 0.573)" fill="#fff" stroke="#fff" stroke-width="0.3"/>
        </g>
      </g>
      <g id="Group_11583-2" data-name="Group 11583" transform="translate(665.04 110.375)">
        <g id="Group_11580" data-name="Group 11580" transform="translate(1.999 1.996)">
          <g id="Group_3923" data-name="Group 3923">
            <path id="Path_1964" data-name="Path 1964" d="M198,328a2,2,0,1,0,2,2A2,2,0,0,0,198,328Zm0,3.2a1.2,1.2,0,1,1,1.2-1.2A1.2,1.2,0,0,1,198,331.2Z" transform="translate(-196 -328)" fill="#fff"/>
          </g>
        </g>
        <g id="Group_11581" data-name="Group 11581">
          <g id="Group_3925" data-name="Group 3925">
            <path id="Path_1965" data-name="Path 1965" d="M163.6,290.8h-.633l-.02-.049.448-.448a.4.4,0,0,0,0-.565l-1.131-1.131a.411.411,0,0,0-.565,0l-.448.448-.049-.02V288.4a.4.4,0,0,0-.4-.4h-1.6a.4.4,0,0,0-.4.4v.633l-.049.02-.448-.448a.4.4,0,0,0-.565,0l-1.131,1.131a.4.4,0,0,0,0,.565l.448.448-.02.049H156.4a.4.4,0,0,0-.4.4v1.6a.4.4,0,0,0,.4.4h.633l.02.049-.448.448a.4.4,0,0,0,0,.565l1.131,1.131a.411.411,0,0,0,.565,0l.448-.448.049.02v.633a.4.4,0,0,0,.4.4h1.6a.4.4,0,0,0,.4-.4v-.633l.049-.02.448.448a.4.4,0,0,0,.565,0l1.131-1.131a.4.4,0,0,0,0-.565l-.448-.448.02-.049h.633a.4.4,0,0,0,.4-.4v-1.6A.4.4,0,0,0,163.6,290.8Zm-.4,1.6h-.517a.4.4,0,0,0-.383.286,2.37,2.37,0,0,1-.187.455.4.4,0,0,0,.069.473l.365.365-.565.565-.365-.365a.4.4,0,0,0-.473-.069,2.369,2.369,0,0,1-.455.187.4.4,0,0,0-.286.383v.517h-.8v-.517a.4.4,0,0,0-.286-.383,2.369,2.369,0,0,1-.455-.187.4.4,0,0,0-.473.069l-.365.365-.565-.565.365-.365a.4.4,0,0,0,.069-.473,2.37,2.37,0,0,1-.187-.455.4.4,0,0,0-.383-.285H156.8v-.8h.517a.4.4,0,0,0,.383-.286,2.371,2.371,0,0,1,.187-.455.4.4,0,0,0-.069-.473l-.365-.365.565-.565.365.365a.4.4,0,0,0,.473.069,2.369,2.369,0,0,1,.455-.187.4.4,0,0,0,.285-.383V288.8h.8v.517a.4.4,0,0,0,.286.383,2.369,2.369,0,0,1,.455.187.4.4,0,0,0,.473-.069l.365-.365.565.565-.365.365a.4.4,0,0,0-.069.473,2.37,2.37,0,0,1,.187.455.4.4,0,0,0,.383.286h.517Z" transform="translate(-156 -288)" fill="#fff"/>
          </g>
        </g>
      </g>
    </g>
    <g id="Group_11582" data-name="Group 11582" transform="translate(-292.427 6.668)">
      <g id="Group_11580-2" data-name="Group 11580" transform="translate(689.73 111.932)">
        <g id="Group_3923-2" data-name="Group 3923">
          <path id="Path_1964-2" data-name="Path 1964" d="M197.528,328a1.528,1.528,0,1,0,1.528,1.528A1.528,1.528,0,0,0,197.528,328Zm0,2.445a.917.917,0,1,1,.917-.917A.917.917,0,0,1,197.528,330.445Z" transform="translate(-196 -328)" fill="#fff"/>
        </g>
      </g>
      <g id="Group_11581-2" data-name="Group 11581" transform="translate(688.202 110.406)">
        <g id="Group_3925-2" data-name="Group 3925">
          <path id="Path_1965-2" data-name="Path 1965" d="M161.806,290.139h-.484l-.015-.038.342-.342a.306.306,0,0,0,0-.432l-.864-.864a.314.314,0,0,0-.432,0l-.342.342-.038-.015v-.484a.306.306,0,0,0-.306-.306h-1.222a.306.306,0,0,0-.306.306v.484l-.038.015-.342-.342a.306.306,0,0,0-.432,0l-.864.864a.306.306,0,0,0,0,.432l.342.342-.015.038h-.484a.306.306,0,0,0-.306.306v1.222a.306.306,0,0,0,.306.306h.484l.015.038-.342.342a.306.306,0,0,0,0,.432l.864.864a.314.314,0,0,0,.432,0l.342-.342.038.015v.484a.306.306,0,0,0,.306.306h1.222a.306.306,0,0,0,.306-.306v-.484l.038-.015.342.342a.306.306,0,0,0,.432,0l.864-.864a.306.306,0,0,0,0-.432l-.342-.342.015-.038h.484a.306.306,0,0,0,.306-.306v-1.222A.306.306,0,0,0,161.806,290.139Zm-.306,1.222h-.4a.306.306,0,0,0-.293.218,1.811,1.811,0,0,1-.143.348.306.306,0,0,0,.053.362l.279.279-.432.432-.279-.279a.305.305,0,0,0-.362-.053,1.812,1.812,0,0,1-.348.143.306.306,0,0,0-.218.293v.4h-.611v-.4a.306.306,0,0,0-.218-.293,1.812,1.812,0,0,1-.348-.143.306.306,0,0,0-.362.053l-.279.279-.432-.432.279-.279a.306.306,0,0,0,.053-.362,1.812,1.812,0,0,1-.143-.348.306.306,0,0,0-.293-.218h-.4v-.611h.4a.306.306,0,0,0,.293-.218,1.814,1.814,0,0,1,.143-.348.306.306,0,0,0-.053-.362l-.279-.279.432-.432.279.279a.306.306,0,0,0,.362.053,1.81,1.81,0,0,1,.348-.143.306.306,0,0,0,.218-.292v-.4h.611v.4a.306.306,0,0,0,.218.293,1.81,1.81,0,0,1,.348.143.306.306,0,0,0,.362-.053l.279-.279.432.432-.279.279a.306.306,0,0,0-.053.362,1.813,1.813,0,0,1,.143.348.306.306,0,0,0,.293.218h.4Z" transform="translate(-156 -288)" fill="#fff"/>
        </g>
      </g>
    </g>
  </g>
</svg>
