<svg xmlns="http://www.w3.org/2000/svg" width="29.528" height="24" viewBox="0 0 29.528 24">
  <g id="upload-svgrepo-com" transform="translate(0 -47.923)">
    <g id="Group_11586" data-name="Group 11586" transform="translate(0 47.923)">
      <g id="Group_11585" data-name="Group 11585">
        <path id="Path_3306" data-name="Path 3306" d="M28.939,47.923H.588A.588.588,0,0,0,0,48.511v18.6a.588.588,0,0,0,.588.588H10.96v3.044H8.874a.588.588,0,1,0,0,1.176h11.78a.588.588,0,0,0,0-1.176H18.568V67.7H28.939a.588.588,0,0,0,.588-.588v-18.6A.588.588,0,0,0,28.939,47.923ZM17.391,70.747H12.136V67.7h5.255Zm.588-10.677a.588.588,0,0,0-.588.588v5.869H12.136V60.658a.588.588,0,0,0-.588-.588h-.482l3.7-3.7,3.7,3.7Zm10.372,6.457H18.568v-5.28h1.314a.588.588,0,0,0,.416-1L15.18,55.125a.588.588,0,0,0-.832,0L9.231,60.242a.588.588,0,0,0,.416,1H10.96v5.28H1.176V52.676H3.732a.588.588,0,0,0,.588-.588V50.865h3.3v1.223a.588.588,0,0,0,.588.588H28.351v13.85Zm0-15.027H8.8V50.277a.588.588,0,0,0-.588-.588H3.732a.588.588,0,0,0-.588.588V51.5H1.176V49.1H28.351v2.4Z" transform="translate(0 -47.923)" fill="#fff"/>
      </g>
    </g>
    <g id="Group_11588" data-name="Group 11588" transform="translate(26.258 49.77)">
      <g id="Group_11587" data-name="Group 11587">
        <path id="Path_3307" data-name="Path 3307" d="M457.651,79.038h-.121a.605.605,0,1,0,0,1.211h.121a.605.605,0,1,0,0-1.211Z" transform="translate(-456.924 -79.038)" fill="#fff"/>
      </g>
    </g>
    <g id="Group_11590" data-name="Group 11590" transform="translate(24.078 49.77)">
      <g id="Group_11589" data-name="Group 11589">
        <path id="Path_3308" data-name="Path 3308" d="M420.934,79.038h-.121a.605.605,0,1,0,0,1.211h.121a.605.605,0,1,0,0-1.211Z" transform="translate(-420.207 -79.038)" fill="#fff"/>
      </g>
    </g>
    <g id="Group_11592" data-name="Group 11592" transform="translate(22.087 49.77)">
      <g id="Group_11591" data-name="Group 11591">
        <path id="Path_3309" data-name="Path 3309" d="M384.217,79.038H384.1a.605.605,0,1,0,0,1.211h.121a.605.605,0,1,0,0-1.211Z" transform="translate(-383.49 -79.038)" fill="#fff"/>
      </g>
    </g>
    <g id="Group_11594" data-name="Group 11594" transform="translate(15.568 60.048)">
      <g id="Group_11593" data-name="Group 11593">
        <path id="Path_3310" data-name="Path 3310" d="M270.884,258.544a.605.605,0,0,0-.605.605v.182a.605.605,0,0,0,1.211,0v-.182A.605.605,0,0,0,270.884,258.544Z" transform="translate(-270.279 -258.544)" fill="#fff"/>
      </g>
    </g>
    <g id="Group_11596" data-name="Group 11596" transform="translate(15.568 61.988)">
      <g id="Group_11595" data-name="Group 11595">
        <path id="Path_3311" data-name="Path 3311" d="M270.884,293.22a.605.605,0,0,0-.605.605v2.846a.605.605,0,0,0,1.211,0v-2.846A.605.605,0,0,0,270.884,293.22Z" transform="translate(-270.279 -293.22)" fill="#fff"/>
      </g>
    </g>
  </g>
</svg>
