<svg xmlns="http://www.w3.org/2000/svg" width="24.3" height="16.465" viewBox="0 0 24.3 16.465">
  <g id="Group_11566" data-name="Group 11566" transform="translate(-2154.54 23319.201)">
    <g id="seller-svgrepo-com" transform="translate(2154.69 -23315.893)">
      <g id="Group_11566-2" data-name="Group 11566" transform="translate(0 0)">
        <path id="Path_3297" data-name="Path 3297" d="M11.377,9.372A10.681,10.681,0,0,0,8.188,8.15L8.294,8a.169.169,0,0,0,.043-.174l-.2-.8a4.645,4.645,0,0,0,.851-2.611V2.9a3.474,3.474,0,0,0-6.949,0v1.52a4.645,4.645,0,0,0,.851,2.611l-.2.8a.323.323,0,0,0,.043.2l.092.126A10.724,10.724,0,0,0-.349,9.372,1.155,1.155,0,0,0-1,10.436v1.781a.205.205,0,0,0,.217.217H11.812a.205.205,0,0,0,.217-.217V10.436A1.245,1.245,0,0,0,11.377,9.372ZM5.514,8.857,5.58,9l.456,1.064H4.976ZM4.833,10.57l.008-.068H6.188l.008.068L6.356,12H4.673ZM7.794,7.461l.087.391-.222.3a.194.194,0,0,0-.039.043l-.9,1.251-.286.393L5.846,8.527a3.151,3.151,0,0,0,1.86-.972Q7.75,7.509,7.794,7.461ZM2.474,2.9a3.04,3.04,0,0,1,6.08,0v1.52a4,4,0,0,1-.791,2.4l-.035.012L7.664,6.9a2.7,2.7,0,0,1-2.15,1.194h0A2.822,2.822,0,0,1,3.365,6.9L3.3,6.832,3.265,6.82a4,4,0,0,1-.791-2.4V2.9ZM5.183,8.527,4.6,9.844l-.286-.393L3.408,8.2l-.022-.021-.238-.327.087-.391q.044.048.089.093A3.151,3.151,0,0,0,5.183,8.527Zm-5.749,1.91a.745.745,0,0,1,.413-.673A9.681,9.681,0,0,1,3.115,8.549l1.313,1.806L4.233,12h-4.8ZM11.595,12H6.817l-.191-1.7L7.914,8.527a10.524,10.524,0,0,1,3.268,1.214.8.8,0,0,1,.413.695V12Z" transform="translate(1 0.573)" fill="#fff" stroke="#fff" stroke-width="0.3"/>
      </g>
    </g>
    <g id="money-svgrepo-com_3_" data-name="money-svgrepo-com (3)" transform="translate(2166.325 -23319.051)">
      <g id="Group_11568" data-name="Group 11568" transform="translate(0 0)">
        <g id="Group_11567" data-name="Group 11567">
          <path id="Path_3298" data-name="Path 3298" d="M111.251,762.81a1.861,1.861,0,1,0,1.872,1.861A1.859,1.859,0,0,0,111.251,762.81Zm0,3.332a1.471,1.471,0,1,1,1.481-1.471A1.465,1.465,0,0,1,111.251,766.142Z" transform="translate(-106.552 -759.199)" fill="#fff" stroke="#fff" stroke-width="0.3"/>
          <path id="Path_3300" data-name="Path 3300" d="M68.84,681.81H59.9a.2.2,0,1,0,0,.39h8.752v4.412a.2.2,0,0,0,.2.2h0a.191.191,0,0,0,.193-.193v-4.61A.2.2,0,0,0,68.84,681.81Z" transform="translate(-58.146 -680.308)" fill="#fff" stroke="#fff" stroke-width="0.3"/>
          <path id="Path_3301" data-name="Path 3301" d="M9.221,737.11H.2a.2.2,0,0,0-.2.2v4.673a.2.2,0,0,0,.2.2H9.221a.2.2,0,0,0,.2-.2v-4.673A.2.2,0,0,0,9.221,737.11Zm-.2.391v.89l-.875-.89Zm-8.635,0H1.25l-.859.888Zm0,4.282V740.9l.859.888Zm8.637,0H8.153l.875-.89Zm0-1.45L7.607,741.78H1.794l-1.4-1.447v-1.385l1.4-1.447H7.607l1.421,1.447v1.385Z" transform="translate(0 -734.168)" fill="#fff" stroke="#fff" stroke-width="0.3"/>
          <path id="Path_3302" data-name="Path 3302" d="M125.54,624.11H116.6a.2.2,0,0,0,0,.391h8.749v4.392a.2.2,0,0,0,.39,0v-4.587A.2.2,0,0,0,125.54,624.11Z" transform="translate(-113.37 -624.11)" fill="#fff" stroke="#fff" stroke-width="0.3"/>
        </g>
      </g>
    </g>
    <path id="rupee-svgrepo-com" d="M2.066,1.115V1.049a.066.066,0,0,0-.043.115ZM2,.131H3.443V0H2Zm.066,1.049h.394V1.049H2.066ZM2.459,0H2.066V.131h.394ZM2.023,1.165l.918.787.085-.1-.918-.787ZM3.049.59A.59.59,0,0,0,2.459,0V.131A.459.459,0,0,1,2.918.59Zm-.59.59a.59.59,0,0,0,.59-.59H2.918a.459.459,0,0,1-.459.459ZM2,.656H3.443V.525H2Z" transform="translate(2168.453 -23314.416)" fill="#fff"/>
  </g>
</svg>
