<svg xmlns="http://www.w3.org/2000/svg" width="24" height="24" viewBox="0 0 24 24">
  <g id="warning-alert-svgrepo-com" transform="translate(0 -0.001)">
    <g id="Group_11599" data-name="Group 11599" transform="translate(0 0.001)">
      <g id="Group_11598" data-name="Group 11598" transform="translate(0 0)">
        <path id="Path_3316" data-name="Path 3316" d="M24,11.794a12.07,12.07,0,0,0-3.558-8.42A11.616,11.616,0,0,0,11.99,0,12.247,12.247,0,0,0,3.471,3.661,11.829,11.829,0,0,0,0,12.211a12.07,12.07,0,0,0,3.558,8.42A11.621,11.621,0,0,0,11.8,24h.214a12.247,12.247,0,0,0,8.519-3.657A11.808,11.808,0,0,0,24,11.794Zm-4.21,7.815A11.167,11.167,0,0,1,12,22.957,10.561,10.561,0,0,1,4.3,19.885,10.986,10.986,0,0,1,1.045,12.2,10.764,10.764,0,0,1,4.212,4.4a11.188,11.188,0,0,1,7.8-3.349h.2a10.575,10.575,0,0,1,7.5,3.073,11.024,11.024,0,0,1,3.245,7.695A10.744,10.744,0,0,1,19.789,19.608Z" transform="translate(0 -0.001)" fill="#fff"/>
        <path id="Path_3317" data-name="Path 3317" d="M235.224,105.518a.527.527,0,0,0,.525-.525v-8.4a.525.525,0,0,0-1.051,0v8.4A.523.523,0,0,0,235.224,105.518Z" transform="translate(-223.224 -91.386)" fill="#fff"/>
        <path id="Path_3318" data-name="Path 3318" d="M224.879,330.73h-.021a1.051,1.051,0,0,0,.021,2.1h.021a1.051,1.051,0,0,0-.021-2.1Z" transform="translate(-212.879 -314.566)" fill="#fff"/>
      </g>
    </g>
  </g>
</svg>
